<svg width="20" height="20" viewBox="0 0 20 20" fill="none" xmlns="http://www.w3.org/2000/svg">
<path d="M10 5.625C10.3452 5.625 10.625 5.90482 10.625 6.25V9.375H13.75C14.0952 9.375 14.375 9.65482 14.375 10C14.375 10.3452 14.0952 10.625 13.75 10.625H10.625V13.75C10.625 14.0952 10.3452 14.375 10 14.375C9.65482 14.375 9.375 14.0952 9.375 13.75V10.625H6.25C5.90482 10.625 5.625 10.3452 5.625 10C5.625 9.65482 5.90482 9.375 6.25 9.375H9.375V6.25C9.375 5.90482 9.65482 5.625 10 5.625Z" fill="#717171"/>
<path fill-rule="evenodd" clip-rule="evenodd" d="M1.25 10C1.25 5.16751 5.16751 1.25 10 1.25C14.8325 1.25 18.75 5.16751 18.75 10C18.75 14.8325 14.8325 18.75 10 18.75C5.16751 18.75 1.25 14.8325 1.25 10ZM10 2.5C5.85786 2.5 2.5 5.85786 2.5 10C2.5 14.1421 5.85786 17.5 10 17.5C14.1421 17.5 17.5 14.1421 17.5 10C17.5 5.85786 14.1421 2.5 10 2.5Z" fill="#717171"/>
</svg>
