<svg width="20" height="21" viewBox="0 0 20 21" fill="none" xmlns="http://www.w3.org/2000/svg">
<path d="M10.625 3.04492C10.625 2.69974 10.3452 2.41992 10 2.41992C9.65482 2.41992 9.375 2.69974 9.375 3.04492V9.91992H2.5C2.15482 9.91992 1.875 10.1997 1.875 10.5449C1.875 10.8901 2.15482 11.1699 2.5 11.1699H9.375V18.0449C9.375 18.3901 9.65482 18.6699 10 18.6699C10.3452 18.6699 10.625 18.3901 10.625 18.0449V11.1699H17.5C17.8452 11.1699 18.125 10.8901 18.125 10.5449C18.125 10.1997 17.8452 9.91992 17.5 9.91992H10.625V3.04492Z" fill="#717171"/>
</svg>
