<svg width="20" height="21" viewBox="0 0 20 21" fill="none" xmlns="http://www.w3.org/2000/svg">
<path fill-rule="evenodd" clip-rule="evenodd" d="M11.875 14.9199C11.875 13.8844 12.7145 13.0449 13.75 13.0449C14.7855 13.0449 15.625 13.8844 15.625 14.9199C15.625 15.9555 14.7855 16.7949 13.75 16.7949C12.7145 16.7949 11.875 15.9555 11.875 14.9199ZM13.75 14.2949C13.4048 14.2949 13.125 14.5747 13.125 14.9199C13.125 15.2651 13.4048 15.5449 13.75 15.5449C14.0952 15.5449 14.375 15.2651 14.375 14.9199C14.375 14.5747 14.0952 14.2949 13.75 14.2949Z" fill="#717171"/>
<path fill-rule="evenodd" clip-rule="evenodd" d="M6.875 2.41992C6.875 2.07474 6.59518 1.79492 6.25 1.79492C5.90482 1.79492 5.625 2.07474 5.625 2.41992V3.04492H5C3.27411 3.04492 1.875 4.44403 1.875 6.16992V16.1699C1.875 17.8958 3.27411 19.2949 5 19.2949H15C16.7259 19.2949 18.125 17.8958 18.125 16.1699V6.16992C18.125 4.44403 16.7259 3.04492 15 3.04492H14.375V2.41992C14.375 2.07474 14.0952 1.79492 13.75 1.79492C13.4048 1.79492 13.125 2.07474 13.125 2.41992V3.04492H6.875V2.41992ZM13.125 4.91992V4.29492H6.875V4.91992C6.875 5.2651 6.59518 5.54492 6.25 5.54492C5.90482 5.54492 5.625 5.2651 5.625 4.91992V4.29492H5C3.96447 4.29492 3.125 5.13439 3.125 6.16992V6.79492H16.875V6.16992C16.875 5.13439 16.0355 4.29492 15 4.29492H14.375V4.91992C14.375 5.2651 14.0952 5.54492 13.75 5.54492C13.4048 5.54492 13.125 5.2651 13.125 4.91992ZM16.875 8.04492H3.125V16.1699C3.125 17.2055 3.96447 18.0449 5 18.0449H15C16.0355 18.0449 16.875 17.2055 16.875 16.1699V8.04492Z" fill="#717171"/>
</svg>
