<svg width="20" height="20" viewBox="0 0 20 20" fill="none" xmlns="http://www.w3.org/2000/svg">
<path fill-rule="evenodd" clip-rule="evenodd" d="M2.5632 4.10114C2.66793 3.8863 2.886 3.75 3.125 3.75H16.875C17.1098 3.75 17.3247 3.88155 17.4315 4.0906C17.5384 4.29965 17.519 4.55093 17.3815 4.74117L13.125 10.6288V16.875C13.125 17.0927 13.0117 17.2948 12.8259 17.4083C12.6401 17.5219 12.4086 17.5305 12.2148 17.4311L7.57195 15.0502C7.36334 14.9432 7.23215 14.7285 7.23215 14.494V10.6419L2.63266 4.76C2.48544 4.57172 2.45847 4.31597 2.5632 4.10114ZM4.40713 5L8.34949 10.0416C8.43545 10.1515 8.48215 10.287 8.48215 10.4266V14.1122L11.875 15.8521V10.4266C11.875 10.2951 11.9165 10.167 11.9935 10.0604L15.6519 5H4.40713Z" fill="#717171"/>
</svg>
