<svg width="228" height="164" viewBox="0 0 228 164" fill="none" xmlns="http://www.w3.org/2000/svg">
<path d="M163.623 46.6426L200.114 37.4401L196.774 42.8834L202.558 46.0261L166.067 55.2286L163.623 46.6426Z" fill="#FEC3CE"/>
<rect width="37.633" height="114.268" rx="4" transform="matrix(0.969641 0.244531 -0.273816 0.961782 160.762 1.74805)" fill="#A3A3F5"/>
<rect width="37.633" height="8.92719" transform="matrix(0.969641 0.244531 -0.273816 0.961782 152.205 31.7988)" fill="#FF8DA6"/>
<path d="M186.305 8.18945L193.373 9.97206C195.515 10.5123 196.761 12.6726 196.157 14.7973L167.059 117.004C166.454 119.129 164.227 120.413 162.085 119.873L155.016 118.09L186.305 8.18945Z" fill="#8888F2"/>
<rect width="11.2899" height="8.92719" transform="matrix(0.969641 0.244531 -0.273816 0.961782 177.748 38.2422)" fill="#F76E88"/>
<path d="M23.332 63.9883H129.11V163.544H31.332C26.9137 163.544 23.332 159.962 23.332 155.544V63.9883Z" fill="#FFDF99"/>
<path d="M23.3327 63.9883H129.11L106.444 85.3216H0.666016L23.3327 63.9883Z" fill="#FFEDC1"/>
<rect x="129.111" y="63.9883" width="75.5556" height="99.5556" fill="#FFCC66"/>
<path d="M204.665 63.9883H129.11L151.776 85.3216H227.332L204.665 63.9883Z" fill="#FFDF99"/>
</svg>
