<svg width="20" height="21" viewBox="0 0 20 21" fill="none" xmlns="http://www.w3.org/2000/svg">
<path fill-rule="evenodd" clip-rule="evenodd" d="M9.375 1.79492C4.88769 1.79492 1.25 5.43261 1.25 9.91992C1.25 14.4072 4.88769 18.0449 9.375 18.0449C11.3937 18.0449 13.2404 17.3087 14.6614 16.0902L17.6831 19.1119C17.9271 19.3559 18.3229 19.3559 18.5669 19.1119C18.811 18.8678 18.811 18.4721 18.5669 18.228L15.5453 15.2063C16.7638 13.7853 17.5 11.9386 17.5 9.91992C17.5 5.43261 13.8623 1.79492 9.375 1.79492ZM2.5 9.91992C2.5 6.12297 5.57804 3.04492 9.375 3.04492C13.172 3.04492 16.25 6.12297 16.25 9.91992C16.25 13.7169 13.172 16.7949 9.375 16.7949C5.57804 16.7949 2.5 13.7169 2.5 9.91992Z" fill="#717171"/>
</svg>
