<svg width="20" height="20" viewBox="0 0 20 20" fill="none" xmlns="http://www.w3.org/2000/svg">
<path fill-rule="evenodd" clip-rule="evenodd" d="M15.5462 4.375C15.2687 5.45327 14.2899 6.25 13.125 6.25C11.9601 6.25 10.9813 5.45327 10.7038 4.375H1.875C1.52982 4.375 1.25 4.09518 1.25 3.75C1.25 3.40482 1.52982 3.125 1.875 3.125H10.7038C10.9813 2.04673 11.9601 1.25 13.125 1.25C14.2899 1.25 15.2687 2.04673 15.5462 3.125H18.125C18.4702 3.125 18.75 3.40482 18.75 3.75C18.75 4.09518 18.4702 4.375 18.125 4.375H15.5462ZM14.375 3.75C14.375 4.44036 13.8154 5 13.125 5C12.4346 5 11.875 4.44036 11.875 3.75C11.875 3.05964 12.4346 2.5 13.125 2.5C13.8154 2.5 14.375 3.05964 14.375 3.75Z" fill="#717171"/>
<path fill-rule="evenodd" clip-rule="evenodd" d="M1.875 9.375C1.52982 9.375 1.25 9.65482 1.25 10C1.25 10.3452 1.52982 10.625 1.875 10.625H4.45376C4.73129 11.7033 5.7101 12.5 6.875 12.5C8.0399 12.5 9.01871 11.7033 9.29624 10.625H18.125C18.4702 10.625 18.75 10.3452 18.75 10C18.75 9.65482 18.4702 9.375 18.125 9.375H9.29624C9.01871 8.29673 8.0399 7.5 6.875 7.5C5.7101 7.5 4.73129 8.29673 4.45376 9.375H1.875ZM6.875 11.25C6.18464 11.25 5.625 10.6904 5.625 10C5.625 9.30964 6.18464 8.75 6.875 8.75C7.56536 8.75 8.125 9.30964 8.125 10C8.125 10.6904 7.56536 11.25 6.875 11.25Z" fill="#717171"/>
<path fill-rule="evenodd" clip-rule="evenodd" d="M1.25 16.25C1.25 15.9048 1.52982 15.625 1.875 15.625H10.7038C10.9813 14.5467 11.9601 13.75 13.125 13.75C14.2907 13.75 15.2701 14.5478 15.5468 15.6272C15.5643 15.6258 15.5821 15.625 15.6 15.625H18.125C18.4702 15.625 18.75 15.9048 18.75 16.25C18.75 16.5952 18.4702 16.875 18.125 16.875H15.6C15.5821 16.875 15.5643 16.8742 15.5468 16.8728C15.2701 17.9522 14.2907 18.75 13.125 18.75C11.9601 18.75 10.9813 17.9533 10.7038 16.875H1.875C1.52982 16.875 1.25 16.5952 1.25 16.25ZM14.375 16.25C14.375 16.9404 13.8154 17.5 13.125 17.5C12.4346 17.5 11.875 16.9404 11.875 16.25C11.875 15.5596 12.4346 15 13.125 15C13.8154 15 14.375 15.5596 14.375 16.25Z" fill="#717171"/>
</svg>
