<svg width="24" height="25" viewBox="0 0 24 25" fill="none" xmlns="http://www.w3.org/2000/svg">
<path fill-rule="evenodd" clip-rule="evenodd" d="M14.25 17.7949C14.25 16.5523 15.2574 15.5449 16.5 15.5449C17.7426 15.5449 18.75 16.5523 18.75 17.7949C18.75 19.0376 17.7426 20.0449 16.5 20.0449C15.2574 20.0449 14.25 19.0376 14.25 17.7949ZM16.5 17.0449C16.0858 17.0449 15.75 17.3807 15.75 17.7949C15.75 18.2091 16.0858 18.5449 16.5 18.5449C16.9142 18.5449 17.25 18.2091 17.25 17.7949C17.25 17.3807 16.9142 17.0449 16.5 17.0449Z" fill="#717171"/>
<path fill-rule="evenodd" clip-rule="evenodd" d="M8.25 2.79492C8.25 2.38071 7.91421 2.04492 7.5 2.04492C7.08579 2.04492 6.75 2.38071 6.75 2.79492V3.54492H6C3.92893 3.54492 2.25 5.22385 2.25 7.29492V19.2949C2.25 21.366 3.92893 23.0449 6 23.0449H18C20.0711 23.0449 21.75 21.366 21.75 19.2949V7.29492C21.75 5.22385 20.0711 3.54492 18 3.54492H17.25V2.79492C17.25 2.38071 16.9142 2.04492 16.5 2.04492C16.0858 2.04492 15.75 2.38071 15.75 2.79492V3.54492H8.25V2.79492ZM15.75 5.79492V5.04492H8.25V5.79492C8.25 6.20914 7.91421 6.54492 7.5 6.54492C7.08579 6.54492 6.75 6.20914 6.75 5.79492V5.04492H6C4.75736 5.04492 3.75 6.05228 3.75 7.29492V8.04492H20.25V7.29492C20.25 6.05228 19.2426 5.04492 18 5.04492H17.25V5.79492C17.25 6.20914 16.9142 6.54492 16.5 6.54492C16.0858 6.54492 15.75 6.20914 15.75 5.79492ZM20.25 9.54492H3.75V19.2949C3.75 20.5376 4.75736 21.5449 6 21.5449H18C19.2426 21.5449 20.25 20.5376 20.25 19.2949V9.54492Z" fill="#717171"/>
</svg>
